<svg width="512" height="512" viewBox="0 0 512 512" fill="none" xmlns="http://www.w3.org/2000/svg">
<rect width="512" height="512" fill="#FCFC30"/>
<path d="M320.844 200.667L287.125 178.188L90 311.334L256 422L422 311.334L352.833 265.511L269.833 321.709L306.146 345.053L256 375.313L161.76 311.334L320.844 200.667Z" fill="#465EFF"/>
<path d="M159.167 376.177L124.583 352.833L90 376.177V422L159.167 376.177Z" fill="#465EFF"/>
<path d="M422 200.667L256 90L90 200.667L159.167 246.49L242.167 190.292L205.854 166.948L256 136.687L350.24 200.667L191.156 311.333L224.874 333.813L422 200.667Z" fill="#465EFF"/>
<path d="M422 135.823V90L352.833 135.823L387.416 159.167L422 135.823Z" fill="#465EFF"/>
</svg>
