<?xml version="1.0" encoding="UTF-8"?><svg id="a" xmlns="http://www.w3.org/2000/svg" width="512" height="512" xmlns:xlink="http://www.w3.org/1999/xlink" viewBox="0 0 512 512"><defs><linearGradient id="b" x1="113.09" y1="340.55" x2="398.91" y2="175.52" gradientTransform="translate(0 514.03) scale(1 -1)" gradientUnits="userSpaceOnUse"><stop offset="0" stop-color="#ba2389"/><stop offset=".35" stop-color="#cd2375"/><stop offset="1" stop-color="#f92246"/></linearGradient></defs><path d="m256,91c91.12,0,165,73.87,165,164.99s-73.88,165.01-165,165.01-165-73.88-165-165S164.88,91,256,91Z" style="fill:url(#b); fill-rule:evenodd; stroke-width:0px;"/><path d="m363.06,259.39c0,24.02-28.37,43.89-65.82,55.99-2.67.87-4.99.18-5.71-1.9-.72-2.24-.18-3.81,4.99-6.05,21.41-9.34,39.41-23.33,39.41-37.33,0-27.65-54.77-48.74-119.69-48.74-9.99,0-19.09.53-27.47,1.22-4.17,9.41-6.3,19.6-6.25,29.9,0,20.92,8.91,42,24.96,56.17,2.13,1.91,2.31,3.64.89,5.54s-3.57,1.89-6.07.34c-25.33-15.73-41.73-44.42-41.03-74.66.03-4.54.52-9.06,1.46-13.49-8.39,1.73-16.42,3.64-24.26,5.91-2.5.66-4.28,0-5.18-1.89-.88-2.08,0-3.81,2.5-5.19,9.1-5.01,19.45-9.16,30.69-12.62,12.3-32.86,44.6-56.52,82.59-57.21,29.07-.51,53.69,12.49,70.46,31.64,1.97,2.24,2.13,3.94.35,5.7s-3.57,1.54-5.91-.35c-12.84-10.55-31.92-17.63-51.01-17.63-25.86,0-49.05,11.93-63.71,30.42,14.03-2.37,28.23-3.58,42.46-3.63,67.78,0,121.3,25.23,121.3,57.9l.05-.03Zm-93.76,111.65h-19.41v-65.59l18.07-10.24c2.18-1.22,4.8-.24,4.8,2.44v69.98c-.01,1.89-1.56,3.42-3.45,3.4h0Zm-39.17,0c-1.22,0-2.22-.97-2.23-2.19v-48.4c-.05-1.6.83-3.09,2.26-3.82l13.65-7.74v62.14h-13.67Z" style="fill:#fff; stroke-width:0px;"/></svg>