<svg width="512" height="512" viewBox="0 0 512 512" fill="none" xmlns="http://www.w3.org/2000/svg">
<g clip-path="url(#clip0_7456_10788)">
<path d="M0 85.3333C0 38.205 38.205 0 85.3333 0H426.667C473.795 0 512 38.205 512 85.3333V426.667C512 473.795 473.795 512 426.667 512H85.3333C38.205 512 0 473.795 0 426.667V85.3333Z" fill="#EA7100"/>
<path d="M243.737 299.079H266.58V323.666H247.596C227.615 323.666 215.353 316.757 215.353 291.423V236.524H201.784C199.419 236.524 198.174 233.66 199.792 231.918L239.068 187.351C240.749 185.546 243.799 186.728 243.799 189.218V211.937H266.456V236.524H243.799V299.079H243.737ZM162.321 210.132C148.69 210.132 138.481 217.975 133.502 230.299H132.568V211.875H105.492V323.666H133.938V237.022H152.922C161.201 237.022 164.251 238.765 164.251 247.603V323.666H192.696V242.063C192.634 219.593 181.866 210.132 162.321 210.132ZM56.3188 323.666H84.7645V211.875H56.3188V323.666ZM428.478 231.669H427.295V211.875H399.036V323.666H429.163V238.578H455.679V210.132H452.006C438.064 210.132 431.901 216.294 428.478 231.669ZM385.841 264.907V273.372H300.566C302.122 289.992 312.517 301.009 328.576 301.009C342.954 301.009 353.349 293.353 355.465 283.892H385.778C379.429 307.482 357.768 325.533 328.14 325.533C293.594 325.533 270.128 300.947 270.128 268.704C270.128 236.461 292.785 210.132 328.887 210.132C362.997 210.132 385.841 233.598 385.841 264.907ZM301.437 252.769H356.461C352.166 241.566 343.079 233.536 329.012 233.536C316.687 233.598 305.857 240.072 301.437 252.769Z" fill="white"/>
</g>
<defs>
<clipPath id="clip0_7456_10788">
<rect width="512" height="512" fill="white"/>
</clipPath>
</defs>
</svg>
