<svg width="512" height="512" viewBox="0 0 512 512" fill="none" xmlns="http://www.w3.org/2000/svg">
<g clip-path="url(#clip0_25283_1048)">
<path d="M133.103 410.302C114.679 406.298 105.061 395.241 101.698 378.897C94.8019 350.214 90 304.389 90 256C90 207.611 94.8019 161.786 101.698 133.103C105.061 116.603 114.679 105.702 133.103 101.542C163.068 94.1607 207.454 90 256 90C304.546 90 348.931 94.1607 378.897 101.542C397.321 105.702 406.939 116.603 410.302 133.103C417.198 161.786 422 207.454 422 256C422 304.546 417.198 350.214 410.302 378.897C406.939 395.241 397.321 406.298 378.897 410.302C348.931 417.839 304.546 422 256 422C207.454 422 163.068 417.839 133.103 410.302ZM138.874 258.722C147.366 258.722 153.294 252.951 153.294 244.786C153.294 236.621 147.366 230.851 138.874 230.851C130.381 230.851 124.454 236.621 124.454 244.786C124.454 252.951 130.381 258.722 138.874 258.722ZM151.057 350.542V267.385H126.705V350.542H151.057ZM172.53 286.293V321.859C172.53 342.049 183.102 352.138 201.854 352.138C208.58 352.138 214.194 351.34 216.915 350.527V331.947C215.148 332.431 211.942 332.901 208.266 332.901C200.415 332.901 196.895 329.054 196.895 320.248V286.279H218.041V267.371H196.895V242.207L172.544 246.524V267.356H160.375V286.265H172.544L172.53 286.293ZM254.247 352.636C264.022 352.636 271.075 348.632 276.034 341.907L276.347 350.556H299.103V301.682C299.103 277.972 285.809 265.305 262.084 265.305C249.916 265.305 239.813 267.228 230.038 270.919V290.468C239.656 286.778 249.26 284.541 258.237 284.541C269.451 284.541 275.706 289.67 275.706 298.647C273.783 298.49 270.577 298.334 267.527 298.334C241.894 298.334 225.707 308.906 225.707 327.017C225.707 342.719 236.764 352.65 254.233 352.65L254.247 352.636ZM269.793 313.38C271.717 313.38 274.766 313.537 275.877 313.708V320.277C275.877 329.097 269.95 335.181 261.457 335.181C253.92 335.181 249.275 331.819 249.275 325.093C249.275 317.399 256.641 313.395 269.779 313.395L269.793 313.38ZM339.171 352.636C349.259 352.636 356.156 348.946 361.599 341.579L361.912 350.556H385.309V267.399H360.958V316.43C360.958 326.518 355.985 332.93 347.82 332.93C339.655 332.93 335.481 327.487 335.481 317.384V267.399H311.129V321.403C311.129 340.468 322.03 352.65 339.171 352.65V352.636ZM369.778 256.171V235.026L329.239 242.236V256.171H369.778Z" fill="#000066"/>
<path d="M138.865 258.746C147.358 258.746 153.285 252.975 153.285 244.81C153.285 236.646 147.358 230.875 138.865 230.875C130.373 230.875 124.445 236.646 124.445 244.81C124.445 252.975 130.373 258.746 138.865 258.746Z" fill="white"/>
<path d="M151.07 267.344H126.719V350.501H151.07V267.344Z" fill="white"/>
<path d="M172.514 286.305V321.87C172.514 342.061 183.086 352.149 201.838 352.149C208.563 352.149 214.178 351.351 216.899 350.539V331.958C215.132 332.443 211.926 332.913 208.25 332.913C200.399 332.913 196.879 329.066 196.879 320.26V286.291H218.025V267.382H196.879V242.219L172.528 246.536V267.368H160.359V286.276H172.528L172.514 286.305Z" fill="white"/>
<path d="M262.065 265.32C249.896 265.32 239.794 267.244 230.019 270.934V290.484C239.637 286.793 249.241 284.556 258.218 284.556C269.432 284.556 275.687 289.686 275.687 298.663C273.763 298.506 270.557 298.349 267.508 298.349C241.874 298.349 225.688 308.922 225.688 327.032C225.688 342.735 236.745 352.666 254.214 352.666C263.989 352.666 271.042 348.662 276 341.937L276.314 350.586H299.069V301.712C299.069 278.002 285.775 265.335 262.051 265.335L262.065 265.32ZM275.844 320.278C275.844 329.099 269.916 335.183 261.424 335.183C253.886 335.183 249.241 331.82 249.241 325.095C249.241 317.4 256.608 313.396 269.745 313.396C271.669 313.396 274.718 313.553 275.829 313.724V320.293L275.844 320.278Z" fill="white"/>
<path d="M339.159 352.581C349.247 352.581 356.144 348.89 361.587 341.524L361.9 350.501H385.297V267.344H360.946V316.374C360.946 326.463 355.973 332.875 347.808 332.875C339.644 332.875 335.469 327.431 335.469 317.329V267.344H311.117V321.347C311.117 340.412 322.018 352.595 339.159 352.595V352.581Z" fill="white"/>
<path d="M369.734 256.153V235.008L329.195 242.218V256.153H369.734Z" fill="white"/>
</g>
<defs>
<clipPath id="clip0_25283_1048">
<rect width="332" height="332" fill="white" transform="translate(90 90)"/>
</clipPath>
</defs>
</svg>
