<svg width="512" height="512" viewBox="0 0 512 512" fill="none" xmlns="http://www.w3.org/2000/svg">
<path d="M254.839 133.781C164.892 134.683 92.4993 186.979 93.137 250.594C93.7747 314.207 167.252 370.034 257.2 369.131C347.148 368.229 419.487 310.935 418.85 247.326C418.211 183.716 344.783 132.878 254.839 133.781Z" fill="#00BCFF"/>
<path d="M202.646 213.889C202.566 214.065 200.993 215.902 202.04 217.354C204.592 220.886 212.392 222.847 220.238 220.816C224.911 219.607 230.861 214.266 236.625 209.107C242.122 203.477 248.446 198.923 255.327 195.641C259.727 193.809 264.551 193.622 269.061 195.107C273.645 196.936 277.91 199.626 281.666 203.06C292.674 212.025 337.002 253.951 344.663 261.197C367.866 250.246 391.917 241.622 416.524 235.429C413.097 213.715 401.058 193.104 382.745 176.996C357.563 188.997 324.656 196.36 294.263 180.345C283.939 175.308 272.805 172.627 261.53 172.465C237.553 173.323 227.278 184.9 216.406 197.157L202.646 213.889Z" fill="white"/>
<path d="M342.925 265.824C342.403 265.318 290.803 216.393 279.127 206.889C275.053 202.962 270.052 200.401 264.711 199.506C262.415 199.327 260.107 199.596 257.896 200.3C251.087 203.215 244.804 207.445 239.338 212.794C232.924 218.56 226.874 223.988 221.22 225.449C214.387 227.073 207.25 225.961 201.08 222.311C199.634 221.354 198.463 219.965 197.702 218.302C197.279 217.028 197.209 215.642 197.5 214.325C197.791 213.007 198.431 211.816 199.336 210.903L213.272 193.897C214.896 192.073 216.525 190.244 218.202 188.448C213.86 189.214 209.574 190.326 205.378 191.777C200.546 193.606 195.511 194.697 190.411 195.019C185.263 194.495 180.144 193.664 175.075 192.527C159.961 188.768 145.189 183.471 130.951 176.705C111.066 193.408 98.2123 213.799 94.5654 236.563C97.4545 237.375 105.023 239.202 106.979 239.661C152.467 250.359 166.713 261.706 169.301 264.081C170.789 262.19 172.648 260.697 174.736 259.715C176.824 258.733 179.087 258.288 181.355 258.413C183.622 258.538 185.835 259.23 187.83 260.436C189.823 261.642 191.543 263.331 192.862 265.378C195.895 262.611 199.699 261.088 203.635 261.062C205.846 261.064 208.042 261.467 210.137 262.254C212.166 262.949 214.039 264.114 215.629 265.671C217.22 267.229 218.492 269.143 219.361 271.286C221.335 270.273 223.483 269.745 225.66 269.739C228.264 269.749 230.839 270.35 233.227 271.504C236.547 273.183 239.256 276.057 240.911 279.656C242.566 283.255 243.066 287.365 242.333 291.315C242.932 291.237 243.535 291.196 244.139 291.191C248.909 291.151 253.501 293.205 256.91 296.9C260.319 300.595 262.266 305.632 262.324 310.904C262.358 314.183 261.651 317.417 260.267 320.315C264.995 323.441 270.436 324.993 275.937 324.784C277.308 324.771 278.662 324.445 279.914 323.826C281.166 323.207 282.287 322.309 283.209 321.187C283.655 320.479 284.118 319.649 283.673 319.058L270.712 303.467C270.712 303.467 268.584 301.284 269.271 300.428C269.981 299.546 271.297 300.787 272.23 301.63C278.805 307.579 286.848 316.579 286.848 316.579C286.989 316.676 287.523 317.822 290.47 318.376C292.233 318.696 294.034 318.621 295.769 318.156C297.503 317.69 299.133 316.843 300.564 315.664C301.372 314.901 302.11 314.049 302.765 313.123C302.721 313.172 302.672 313.216 302.618 313.253C303.501 311.872 303.936 310.202 303.853 308.511C303.77 306.821 303.172 305.209 302.158 303.939L287.025 285.533C287.025 285.533 284.864 283.366 285.589 282.487C286.23 281.716 287.614 282.855 288.562 283.705C293.335 288.032 300.097 295.378 306.575 302.26C308.727 303.836 311.274 304.617 313.85 304.493C316.428 304.369 318.9 303.344 320.913 301.567C322.567 300.535 323.929 299.016 324.847 297.178C325.765 295.341 326.203 293.257 326.115 291.158C325.765 288.535 324.629 286.118 322.889 284.292L302.251 261.801C302.251 261.801 300.068 259.785 300.824 258.751C301.442 257.877 302.844 259.109 303.777 259.95C310.339 265.902 328.122 283.574 328.122 283.574C330.211 285.033 332.645 285.77 335.113 285.691C337.58 285.612 339.969 284.72 341.973 283.13C343.262 282.278 344.342 281.091 345.12 279.671C345.899 278.252 346.351 276.644 346.439 274.985C346.483 273.27 346.191 271.565 345.585 269.983C344.979 268.403 344.071 266.984 342.925 265.824Z" fill="white"/>
<path d="M244.181 295.582C241.788 295.978 239.426 296.583 237.118 297.388C236.864 297.211 237.295 295.798 237.582 294.985C237.882 294.179 241.912 280.266 231.699 275.555C229.411 274.229 226.798 273.753 224.25 274.199C221.701 274.646 219.353 275.99 217.553 278.032C217.133 278.528 216.939 278.489 216.886 277.869C216.799 275.28 215.981 272.783 214.548 270.732C213.114 268.679 211.136 267.173 208.891 266.426C205.711 265.379 202.313 265.496 199.202 266.758C196.092 268.019 193.436 270.36 191.629 273.43C191.274 270.697 190.098 268.175 188.288 266.272C186.478 264.368 184.143 263.192 181.657 262.936C179.172 262.68 176.683 263.357 174.592 264.858C172.501 266.359 170.931 268.597 170.134 271.209C169.338 273.822 169.361 276.657 170.202 279.257C171.043 281.856 172.652 284.068 174.767 285.535C176.884 287.002 179.384 287.638 181.865 287.342C184.345 287.044 186.661 285.831 188.438 283.898C188.502 283.962 188.528 284.077 188.499 284.311C187.785 288.117 188.335 292.085 190.049 295.486C191.764 298.887 194.528 301.494 197.834 302.831C199.621 303.572 201.551 303.783 203.432 303.442C205.312 303.102 207.079 302.221 208.556 300.891C209.432 300.195 209.577 300.483 209.462 301.403C209.112 304.252 209.655 310.339 217.415 313.719C219.339 314.738 221.507 315.043 223.599 314.591C225.691 314.14 227.593 312.955 229.025 311.212C230.009 310.206 230.282 310.366 230.349 311.911C230.503 314.94 231.459 317.854 233.097 320.29C234.735 322.727 236.983 324.581 239.563 325.619C242.143 326.658 244.939 326.838 247.607 326.135C250.274 325.432 252.696 323.88 254.57 321.668C256.443 319.456 257.686 316.685 258.147 313.695C258.606 310.706 258.262 307.631 257.156 304.854C256.049 302.076 254.23 299.717 251.924 298.068C249.619 296.42 246.927 295.556 244.183 295.582H244.181Z" fill="white"/>
<path d="M254.763 129.012C163.102 129.932 89.3414 184.575 90.0044 250.684C90.0215 252.393 90.0502 257.111 90.0562 257.71C90.7596 327.852 156.273 384 257.289 382.987C358.916 381.967 422.697 324.533 421.994 254.392L421.924 247.354C421.259 181.244 346.416 128.092 254.763 129.012ZM414.307 234.13C390.452 240.219 367.19 248.844 344.844 259.883C328.945 244.853 292.214 210.243 282.28 202.17C278.424 198.656 274.05 195.904 269.35 194.034C267.303 193.343 265.174 192.997 263.036 193.008C260.313 193.075 257.617 193.606 255.042 194.58C248.155 197.826 241.824 202.352 236.323 207.965L236.01 208.244C230.343 213.326 224.486 218.585 220.026 219.728C218.075 220.237 216.078 220.504 214.072 220.527C212.062 220.733 210.036 220.496 208.107 219.832C206.178 219.168 204.386 218.088 202.836 216.656C202.553 216.264 202.73 215.628 203.369 214.707L203.451 214.583L217.141 197.945C227.868 185.842 238.002 174.414 261.579 173.579C261.971 173.564 262.367 173.551 262.755 173.548C273.471 173.923 284.026 176.573 293.844 181.355C307.043 188.477 321.535 192.165 336.21 192.134C352.26 191.667 368.015 187.332 382.378 179.432C399.36 194.907 410.709 213.636 414.307 234.13ZM254.863 136.098C303.514 135.61 347.204 150.59 376.715 174.577C364.01 181.154 350.209 184.76 336.173 185.17C322.44 185.184 308.879 181.721 296.531 175.046C285.86 169.795 274.363 166.915 262.695 166.57C262.252 166.574 261.804 166.587 261.365 166.602C247.315 166.515 233.713 172.012 223.04 182.09C216.52 182.533 210.081 183.9 203.879 186.157C199.521 187.814 194.982 188.823 190.381 189.158C188.647 189.175 185.524 189.031 185.243 189.02C168.658 185.965 152.374 181.161 136.612 174.674C165.592 151.432 207.764 136.571 254.863 136.098ZM130.917 179.522C151.251 188.472 175.88 195.293 183.652 195.772C185.819 195.907 188.13 196.155 190.438 196.137C195.63 195.807 200.756 194.7 205.675 192.848C208.606 191.907 211.838 190.881 215.242 190.127C214.339 191.122 213.442 192.132 212.539 193.153L198.638 210.122C197.578 211.181 196.835 212.572 196.506 214.109C196.179 215.647 196.28 217.259 196.797 218.734C197.633 220.597 198.932 222.159 200.542 223.236C205.122 226.033 210.293 227.428 215.52 227.274C217.522 227.27 219.518 227.018 221.47 226.525C227.356 225.006 233.491 219.491 239.984 213.665C245.36 208.429 251.519 204.266 258.187 201.359C259.849 200.853 261.562 200.576 263.286 200.534C263.728 200.526 264.171 200.551 264.609 200.609C269.772 201.492 274.603 203.979 278.541 207.779C290.19 217.261 341.796 266.18 342.304 266.663C343.329 267.716 344.141 268.999 344.684 270.425C345.227 271.851 345.49 273.389 345.455 274.935C345.377 276.418 344.97 277.856 344.27 279.122C343.569 280.388 342.599 281.443 341.44 282.195C339.468 283.684 337.148 284.509 334.759 284.573C332.661 284.596 330.6 283.959 328.814 282.736C328.627 282.567 310.937 264.989 304.429 259.087C303.613 258.153 302.544 257.537 301.385 257.332C301.129 257.329 300.875 257.391 300.643 257.515C300.412 257.638 300.209 257.818 300.052 258.043C299.052 259.433 300.207 261.337 301.559 262.578L322.243 285.116C323.785 286.744 324.801 288.886 325.134 291.213C325.205 293.118 324.799 295.008 323.957 296.671C323.117 298.335 321.876 299.707 320.371 300.636C318.261 302.314 315.746 303.262 313.145 303.36C311.068 303.38 309.029 302.719 307.289 301.459L304.324 298.293C298.901 292.514 293.303 286.535 289.212 282.838C288.385 281.915 287.308 281.311 286.146 281.119C285.903 281.117 285.665 281.17 285.444 281.278C285.223 281.385 285.024 281.543 284.863 281.741C284.407 282.313 284.094 283.336 285.27 285.018C285.585 285.469 285.935 285.892 286.314 286.28L301.424 304.667C302.296 305.737 302.813 307.104 302.89 308.541C302.966 309.979 302.596 311.401 301.842 312.573L301.32 313.317C300.888 313.845 300.429 314.344 299.944 314.813C297.85 316.548 295.295 317.471 292.675 317.441C291.999 317.451 291.323 317.395 290.656 317.273C289.567 317.189 288.53 316.718 287.7 315.932L287.512 315.725C286.691 314.801 279.082 306.384 272.801 300.701C272.019 299.801 270.992 299.208 269.878 299.013C269.624 299.013 269.372 299.075 269.14 299.192C268.909 299.308 268.703 299.478 268.535 299.691C267.323 301.195 269.194 303.404 269.986 304.215L282.867 319.612C282.761 319.957 282.604 320.28 282.4 320.564C281.95 321.266 280.426 322.99 275.813 323.676C275.254 323.761 274.69 323.805 274.125 323.807C269.741 323.54 265.466 322.185 261.617 319.843C262.948 316.631 263.523 313.097 263.289 309.57C263.053 306.043 262.016 302.636 260.274 299.666C258.532 296.696 256.14 294.26 253.321 292.584C250.501 290.907 247.346 290.043 244.148 290.074C243.924 290.076 243.685 290.086 243.462 290.096C243.966 286.094 243.28 282.017 241.507 278.478C239.733 274.939 236.97 272.131 233.631 270.478C231.119 269.263 228.409 268.632 225.671 268.622C223.681 268.632 221.711 269.047 219.86 269.847C217.884 265.714 214.509 262.609 210.474 261.213C208.276 260.377 205.968 259.951 203.644 259.955C199.834 259.969 196.129 261.323 193.066 263.822C191.642 261.886 189.866 260.304 187.852 259.179C185.839 258.053 183.634 257.411 181.381 257.294C179.13 257.176 176.882 257.586 174.785 258.496C172.688 259.407 170.789 260.797 169.215 262.576C165.217 259.267 149.386 248.384 107.199 238.244C105.185 237.761 100.607 236.362 97.7243 235.46C101.463 214.538 113.274 195.347 130.918 179.522H130.917ZM210.186 299.837L209.727 299.391L209.267 299.396C208.794 299.439 208.346 299.645 207.986 299.984C206.193 301.54 204 302.428 201.721 302.522C200.519 302.523 199.327 302.279 198.203 301.803C195.102 300.56 192.513 298.115 190.916 294.924C189.319 291.732 188.823 288.011 189.52 284.45C189.568 284.192 189.552 283.923 189.474 283.673C189.397 283.423 189.26 283.2 189.079 283.027L188.384 282.412L187.747 283.097C185.892 285.129 183.392 286.279 180.779 286.304C178.829 286.332 176.913 285.738 175.26 284.592C173.606 283.446 172.285 281.798 171.458 279.844C170.629 277.891 170.328 275.716 170.59 273.581C170.853 271.446 171.667 269.44 172.935 267.806C174.204 266.174 175.874 264.98 177.743 264.371C179.613 263.762 181.602 263.762 183.472 264.372C185.344 264.982 187.017 266.177 188.291 267.812C189.565 269.446 190.386 271.452 190.654 273.587L191.034 276.59L192.502 274.03C194.157 271.125 196.636 268.908 199.552 267.727C202.469 266.546 205.659 266.467 208.625 267.5C210.674 268.188 212.478 269.568 213.782 271.446C215.086 273.324 215.827 275.605 215.899 277.97C216.023 279.427 216.963 279.489 217.145 279.487C217.372 279.467 217.592 279.395 217.793 279.277C217.993 279.158 218.169 278.995 218.31 278.796C219.261 277.676 220.41 276.783 221.687 276.171C222.962 275.561 224.339 275.244 225.73 275.243C227.659 275.27 229.563 275.724 231.331 276.58C240.911 281.007 236.722 294.447 236.673 294.584C235.872 296.812 235.849 297.794 236.625 298.351L237.004 298.543L237.283 298.54C237.918 298.455 238.538 298.269 239.125 297.988C240.742 297.261 242.455 296.825 244.197 296.695H244.202C245.911 296.678 247.606 297.034 249.191 297.741C250.776 298.448 252.22 299.494 253.441 300.817C254.662 302.141 255.635 303.716 256.307 305.455C256.977 307.193 257.332 309.06 257.35 310.948C257.369 312.837 257.051 314.709 256.414 316.46C255.778 318.211 254.835 319.806 253.64 321.153C252.446 322.501 251.022 323.574 249.451 324.312C247.88 325.05 246.192 325.438 244.484 325.454C241.134 325.51 237.892 324.124 235.445 321.589C232.997 319.052 231.536 315.566 231.37 311.866C231.344 311.208 231.264 309.459 229.921 309.472C229.311 309.556 228.753 309.889 228.354 310.407C226.714 312.377 224.432 313.544 222.01 313.654C220.563 313.635 219.132 313.307 217.796 312.688C210.356 309.438 210.198 303.816 210.475 301.552C210.545 301.261 210.555 300.955 210.506 300.659C210.455 300.362 210.347 300.081 210.186 299.837ZM257.126 361.82C168.991 362.705 97.0403 312.89 96.4153 250.56C96.4037 248.069 96.507 245.578 96.7251 243.099C97.4303 243.278 104.448 245.057 105.901 245.403C148.993 255.528 163.307 266.361 165.728 268.413C164.735 271.128 164.364 274.075 164.648 276.991C164.932 279.906 165.864 282.7 167.359 285.125C168.853 287.549 170.866 289.53 173.218 290.89C175.57 292.25 178.188 292.948 180.839 292.921C181.83 292.913 182.819 292.802 183.791 292.589C184.461 296.112 185.947 299.383 188.105 302.082C190.262 304.782 193.016 306.815 196.096 307.986C197.933 308.76 199.882 309.156 201.847 309.152C203.083 309.147 204.314 308.966 205.509 308.614C207.019 312.034 209.354 314.928 212.255 316.978C215.156 319.028 218.511 320.153 221.951 320.23C223.628 320.213 225.289 319.868 226.858 319.211C228.081 322.424 230.01 325.25 232.469 327.434C234.928 329.619 237.839 331.091 240.94 331.721C244.041 332.349 247.233 332.114 250.227 331.036C253.223 329.959 255.925 328.072 258.092 325.547C263.026 328.656 268.558 330.421 274.227 330.695C275.041 330.684 275.852 330.619 276.659 330.5C278.75 330.409 280.799 329.826 282.669 328.79C284.538 327.754 286.186 326.289 287.502 324.493C287.75 324.107 287.971 323.701 288.163 323.279C289.839 323.825 291.576 324.106 293.323 324.117C297.096 323.996 300.729 322.518 303.671 319.906C306.78 317.601 308.946 314.038 309.703 309.982C309.709 309.937 309.714 309.893 309.716 309.847C310.863 310.093 312.029 310.211 313.198 310.199C317.013 310.109 320.714 308.769 323.835 306.35C326.212 304.793 328.163 302.554 329.485 299.872C330.805 297.189 331.447 294.161 331.342 291.106C332.503 291.361 333.686 291.484 334.871 291.475C338.43 291.397 341.89 290.18 344.834 287.973C346.79 286.622 348.429 284.778 349.617 282.591C350.805 280.405 351.507 277.938 351.667 275.392C351.868 271.849 351.06 268.323 349.357 265.309C370.702 255.419 392.764 247.531 415.312 241.731C415.46 243.596 415.551 245.473 415.57 247.362C416.195 309.688 345.259 360.936 257.127 361.821L257.126 361.82Z" fill="#0A0080"/>
</svg>
