<svg width="512" height="512" viewBox="0 0 512 512" fill="none" xmlns="http://www.w3.org/2000/svg">
<rect width="512" height="512" fill="url(#paint0_linear_5839_10826)"/>
<path d="M406 251.842L401.845 262.842C383.225 311.988 357.636 353.218 327.383 368.569C319.413 372.629 311.106 374.882 302.523 374.984C272.801 374.316 261.69 352.489 266.938 320.563L279.073 246.781C279.719 242.884 278.695 240.5 276.711 240.529C276.619 240.529 276.527 240.529 276.435 240.548C274.807 240.692 272.569 242.42 270.111 246.184H270.121C233.485 305.384 210.598 372.77 172.731 374.949C172.108 374.981 171.472 375 170.84 375C169.663 375 168.529 374.949 167.422 374.847C145.486 372.895 137.507 351.796 144.269 311.039L156.219 231.305C156.915 224.357 155.79 220.069 152.77 220.9C149.333 221.855 143.42 229.465 134.906 247.376L128.685 260.762H105L110.627 244.692C115.987 229.414 122.209 215.481 129.002 203.092C151.377 162.242 180.024 138 205 137.032C205.489 137.013 205.972 137 206.462 137C207.32 137 208.16 137.032 208.98 137.083C229.86 138.543 237.341 158.604 232.226 200.964L222.752 276.822L222.863 276.576L222.831 276.822L227.568 266.417C260.828 191.763 297.159 140.303 333.039 137.157C334.164 137.054 335.299 137.003 336.425 137.003C337.623 137.003 338.787 137.054 339.912 137.157C361.848 139.109 369.818 160.207 363.066 200.964L349.151 285.458C347.984 292.768 350.114 297.282 354.686 295.442H354.705C359.432 293.519 366.776 284.841 375.792 265.522L382.309 251.839H405.994L406 251.842Z" fill="white"/>
<defs>
<linearGradient id="paint0_linear_5839_10826" x1="0" y1="256" x2="512" y2="256" gradientUnits="userSpaceOnUse">
<stop stop-color="#008FFF"/>
<stop offset="1" stop-color="#00FFF2"/>
</linearGradient>
</defs>
</svg>
