<?xml version="1.0" encoding="UTF-8"?>
<svg width="512px" height="512px" viewBox="0 0 512 512" version="1.1" xmlns="http://www.w3.org/2000/svg" xmlns:xlink="http://www.w3.org/1999/xlink">
    <title>Artboard</title>
    <g id="Artboard" stroke="none" stroke-width="1" fill="none" fill-rule="evenodd">
        <rect id="Rectangle" fill="#FFFFFF" x="0" y="0" width="512" height="512"></rect>
        <g id="santander_chama" transform="translate(90, 98)" fill="#EC0000" fill-rule="nonzero">
            <path d="M237.947972,144.708227 C237.435626,133.283893 234.28836,122.006025 228.359788,111.826651 L176.393298,21.7501738 C172.440917,14.8662804 169.659612,7.54298957 168.195767,0 L166,3.73487833 C153.118166,25.9976825 153.118166,53.4600232 166,75.7960603 L207.573192,147.857242 C220.455026,170.120046 220.455026,197.65562 207.573192,219.918424 L205.377425,223.653302 C203.840388,216.110313 201.132275,208.713789 197.179894,201.903129 L159.119929,135.920278 L134.820106,93.8113557 C130.867725,86.9274623 128.08642,79.6041715 126.622575,72.0611819 L124.426808,75.7960603 C111.618166,97.9856315 111.544974,125.374739 124.280423,147.637543 L124.280423,147.637543 L166,219.918424 C178.881834,242.181228 178.881834,269.643569 166,291.979606 L163.804233,295.714484 C162.267196,288.171495 159.559083,280.774971 155.606702,273.964311 L103.640212,183.887833 C96.6869489,171.804403 93.4664903,158.183082 94.0520282,144.708227 C38.4259259,159.281576 0,190.11263 0,225.923523 C0,275.648667 74.2901235,316 166,316 C257.636684,316 332,275.648667 332,225.923523 C332,190.11263 293.574074,159.281576 237.947972,144.708227" id="Path"></path>
        </g>
    </g>
</svg>