<svg width="512" height="512" viewBox="0 0 512 512" fill="none" xmlns="http://www.w3.org/2000/svg">
<path d="M106.525 132.119C103.982 132.373 101.313 133.072 98.8983 134.471C93.1785 137.775 89.9374 143.813 90.0009 150.104C90.0009 152.837 90.5729 155.506 91.8439 158.176L180.5 312.163L209.225 262.465L256 181.69L227.338 132.119H106.525Z" fill="#7DB61C"/>
<path d="M227.338 132.119L302.712 262.465H355.714H359.972L420.22 157.794C421.3 155.506 421.999 152.901 421.999 150.104C421.999 140.572 414.437 132.755 404.967 132.119H227.338V132.119Z" fill="#00AE9D"/>
<path d="M355.714 262.463H209.226L180.5 312.161L241.129 416.641C242.591 418.802 244.497 420.708 246.912 422.107C249.709 423.759 252.823 424.522 255.937 424.522C261.784 424.522 267.567 421.535 270.999 416.323L359.972 262.463H355.714V262.463Z" fill="#C9D200"/>
</svg>
