<svg xmlns="http://www.w3.org/2000/svg" width="512" height="512" fill="none" xmlns:v="https://vecta.io/nano"><path d="M165 263h257v86c0 30.928-25.072 56-56 56H165V263z" fill="#fff"/><path d="M331.593 336.962h37.568c14.05 0 23.823-6.407 23.823-19.526s-9.773-19.527-23.823-19.527h-37.568v39.053zm0 68.038h50.091C408.256 405 422 391.27 422 364.727v-27.765h-.916c-7.636 23.188-27.489 30.205-51.007 30.205h-37.262c-.916 0-1.222.305-1.222 1.221V405zm-70.553-87.564l38.483 37.222v-74.445l-38.483 37.223zM130.316 405h169.207v-8.543c0-14.95 5.193-23.493 17.104-28.069v-.916h-47.341c-2.443 0-3.36-.305-5.192-2.135l-24.74-25.629-25.656 25.934c-1.221 1.22-2.138 1.83-4.581 1.83h-38.179c-2.138 0-2.138-1.22-.916-2.44l48.869-47.291-49.785-48.206c-1.222-1.221-.916-2.441 1.222-2.441h38.483c2.138 0 3.055.305 4.276 1.83l26.878 26.849 25.351-26.849c1.221-1.22 2.138-1.83 3.97-1.83h100.486c23.212 0 43.676 7.627 51.312 30.815H422V146.273C422 119.73 408.256 106 381.684 106H130.316C103.744 106 90 119.73 90 146.273v218.759C90 391.27 103.744 405 130.316 405z" fill="#121212"/></svg>